<svg width="67" height="67" viewBox="0 0 67 67" fill="none" xmlns="http://www.w3.org/2000/svg">
<path d="M4.1875 25.4043C4.1875 17.9778 4.1875 14.2645 5.6328 11.4279C6.90412 8.93283 8.93271 6.90424 11.4278 5.63292C14.2644 4.18762 17.9776 4.18762 25.4042 4.18762H41.5958C49.0224 4.18762 52.7356 4.18762 55.5722 5.63292C58.0673 6.90424 60.0959 8.93283 61.3672 11.4279C62.8125 14.2645 62.8125 17.9778 62.8125 25.4043V41.596C62.8125 49.0225 62.8125 52.7358 61.3672 55.5723C60.0959 58.0674 58.0673 60.096 55.5722 61.3673C52.7356 62.8126 49.0224 62.8126 41.5958 62.8126H25.4042C17.9776 62.8126 14.2644 62.8126 11.4278 61.3673C8.93271 60.096 6.90412 58.0674 5.6328 55.5723C4.1875 52.7358 4.1875 49.0225 4.1875 41.596V25.4043Z" fill="#00005B"/>
<path d="M28.8714 40.9618H19.7868L17.9384 46.8621C17.8871 47.0809 17.6856 47.2359 17.4664 47.2252H12.8651C12.6027 47.2252 12.511 47.0773 12.5898 46.7815L20.4553 23.6439C20.534 23.402 20.6126 23.1654 20.6913 22.8559C20.7942 22.3177 20.8469 21.7708 20.8486 21.2224C20.8261 21.0603 20.9659 20.9169 21.1239 20.94H27.3769C27.5601 20.94 27.665 21.0072 27.6916 21.1417L36.619 46.8218C36.6976 47.0909 36.619 47.2254 36.383 47.2252H31.2704C31.091 47.2455 30.9198 47.1226 30.8771 46.9428L28.8714 40.9618ZM21.2025 35.9868H27.4163C26.3954 32.4982 25.2433 29.0555 24.3095 25.5398C23.2513 29.1867 22.2742 32.5689 21.2025 35.9868Z" fill="#9999FF"/>
<path d="M43.2586 38.6835C43.6201 41.6795 46.1359 43.1078 48.9218 43.047C50.4926 43.016 52.1715 42.7722 53.6393 42.1782C53.7701 42.0711 53.836 42.1379 53.836 42.3799V46.2118C53.8483 46.4112 53.7651 46.5893 53.5999 46.6958C51.7756 47.5246 49.6812 47.7745 47.7026 47.7428C41.8028 47.7428 37.7511 43.5858 37.7527 37.5378C37.7373 31.8063 41.4556 26.971 47.2306 26.971C52.126 26.8441 55.5151 30.7635 55.5288 35.642C55.5288 36.5306 55.4792 37.4222 55.3715 38.3042C55.3506 38.4859 55.1959 38.6269 55.0175 38.6269C51.1078 38.6269 47.179 38.6835 43.2586 38.6835ZM43.2586 35.009C45.4375 35.009 47.629 35.086 49.8066 34.9888C50.1339 34.9553 50.3769 34.8933 50.3769 34.5529C50.3315 32.7443 48.8052 31.2569 47.0341 31.326C44.8941 31.1934 43.5246 32.9998 43.2586 35.009Z" fill="#9999FF"/>
</svg>
