<svg width="67" height="67" viewBox="0 0 67 67" fill="none" xmlns="http://www.w3.org/2000/svg">
<path d="M4.18751 25.4043C4.18751 17.9778 4.18751 14.2645 5.63281 11.4279C6.90413 8.93283 8.93271 6.90424 11.4278 5.63292C14.2644 4.18762 17.9776 4.18762 25.4042 4.18762H41.5958C49.0224 4.18762 52.7356 4.18762 55.5722 5.63292C58.0673 6.90424 60.0959 8.93283 61.3672 11.4279C62.8125 14.2645 62.8125 17.9778 62.8125 25.4043V41.596C62.8125 49.0225 62.8125 52.7358 61.3672 55.5723C60.0959 58.0674 58.0673 60.096 55.5722 61.3673C52.7356 62.8126 49.0224 62.8126 41.5958 62.8126H25.4042C17.9776 62.8126 14.2644 62.8126 11.4278 61.3673C8.93271 60.096 6.90413 58.0674 5.63281 55.5723C4.18751 52.7358 4.18751 49.0225 4.18751 41.596V25.4043Z" fill="#00005B"/>
<path d="M16.75 45.6347V19.2792C16.75 19.0999 16.8235 18.9974 16.995 18.9974C19.5268 18.9974 22.0575 18.8438 24.59 18.8438C28.6993 18.8438 33.1488 20.2759 34.7085 24.6578C35.076 25.7336 35.272 26.8349 35.272 27.9875C35.272 30.1902 34.782 32.0087 33.802 33.443C31.0645 37.4496 26.3197 37.3874 22.0665 37.3874V45.6091C22.0997 45.8525 21.8962 45.9677 21.699 45.9677H17.044C16.848 45.9677 16.75 45.8652 16.75 45.6347ZM22.091 23.9407V32.5466C23.7774 32.6725 25.5421 32.6862 27.1625 32.1368C28.9513 31.6108 29.931 30.0324 29.931 28.1412C29.9807 26.5296 29.1192 24.9833 27.6525 24.4017C26.0517 23.7233 23.819 23.6826 22.091 23.9407Z" fill="#9999FF"/>
<path d="M38.5931 25.5687H42.8927C43.1298 25.5709 43.3426 25.7421 43.4054 25.9811C43.7205 26.7125 43.7593 27.5945 43.7605 28.3841C44.4978 27.4866 45.3869 26.7388 46.3834 26.178C47.4523 25.5458 48.664 25.2253 49.8918 25.2502C50.0956 25.2197 50.276 25.4083 50.2469 25.6213V30.6109C50.2469 30.8036 50.1149 30.8996 49.8525 30.8996C48.0326 30.7683 45.1992 31.2178 43.8769 32.714V45.6878C43.8769 45.9352 43.7717 46.0589 43.5613 46.0589H38.9481C38.7215 46.0929 38.5216 45.8797 38.5536 45.6465V31.5594C38.5536 29.6717 38.5928 27.7273 38.317 25.8574C38.2745 25.6854 38.4321 25.5254 38.5931 25.5687Z" fill="#9999FF"/>
</svg>
