<svg width="67" height="67" viewBox="0 0 67 67" fill="none" xmlns="http://www.w3.org/2000/svg">
<path d="M4.18751 25.4043C4.18751 17.9778 4.18751 14.2645 5.63281 11.4279C6.90413 8.93283 8.93271 6.90424 11.4278 5.63292C14.2644 4.18762 17.9776 4.18762 25.4042 4.18762H41.5958C49.0224 4.18762 52.7356 4.18762 55.5722 5.63292C58.0673 6.90424 60.0959 8.93283 61.3672 11.4279C62.8125 14.2645 62.8125 17.9778 62.8125 25.4043V41.596C62.8125 49.0225 62.8125 52.7358 61.3672 55.5723C60.0959 58.0674 58.0673 60.096 55.5722 61.3673C52.7356 62.8126 49.0224 62.8126 41.5958 62.8126H25.4042C17.9776 62.8126 14.2644 62.8126 11.4278 61.3673C8.93271 60.096 6.90413 58.0674 5.63281 55.5723C4.18751 52.7358 4.18751 49.0225 4.18751 41.596V25.4043Z" fill="#001E36"/>
<path d="M16.75 47.1434V21.3634C16.75 21.188 16.8233 21.0878 16.9943 21.0878C19.5185 21.0878 22.0417 20.9375 24.5667 20.9375C28.6638 20.9375 33.1001 22.3384 34.655 26.6246C35.0215 27.6769 35.2169 28.7542 35.2169 29.8816C35.2169 32.0362 34.7283 33.815 33.7512 35.218C31.0219 39.1371 26.2912 39.0762 22.0507 39.0762V47.1183C22.0838 47.3564 21.8809 47.4691 21.6843 47.4691H17.0431C16.8477 47.4691 16.75 47.3689 16.75 47.1434ZM22.0751 25.9231V34.3411C23.7565 34.4643 25.516 34.4776 27.1315 33.9402C28.915 33.4258 29.8918 31.8819 29.8918 30.0319C29.9413 28.4555 29.0824 26.943 27.62 26.3741C26.024 25.7104 23.798 25.6707 22.0751 25.9231Z" fill="#31A8FF"/>
<path d="M50.4524 32.6779C49.7133 32.2884 48.9261 32.0035 48.1124 31.8309C47.0667 31.5848 42.9423 30.7231 42.9408 32.8796C42.9774 34.0836 44.8885 34.6734 45.733 35.0174C48.6974 36.0352 52.0521 37.8544 51.9861 41.5115C52.0768 46.0642 47.6657 47.8842 43.8846 47.8846C41.9162 47.905 39.8656 47.6001 38.0641 46.7552C37.8921 46.6641 37.7814 46.4695 37.7888 46.2711V41.9149C37.7694 41.7402 37.9569 41.5875 38.1035 41.7132C39.8685 42.7806 41.9607 43.2989 44.0026 43.3266C44.904 43.3266 46.6905 43.2392 46.6769 41.9149C46.6769 40.6439 44.5398 40.0596 43.6879 39.7367C42.4531 39.2959 41.2823 38.6853 40.2075 37.9216C38.7054 36.8502 37.7632 35.1324 37.7888 33.2426C37.78 28.9559 41.8404 27.0318 45.4971 27.0309C47.2065 27.0168 49.0422 27.1434 50.6335 27.8376C50.8624 27.905 50.9098 28.146 50.9088 28.362V32.4359C50.9234 32.6888 50.6425 32.7749 50.4524 32.6779Z" fill="#31A8FF"/>
</svg>
