<svg width="67" height="67" viewBox="0 0 67 67" fill="none" xmlns="http://www.w3.org/2000/svg">
<path d="M4.1875 25.4042C4.1875 17.9776 4.1875 14.2644 5.6328 11.4278C6.90412 8.93271 8.93271 6.90412 11.4278 5.6328C14.2644 4.1875 17.9776 4.1875 25.4042 4.1875H41.5958C49.0224 4.1875 52.7356 4.1875 55.5722 5.6328C58.0673 6.90412 60.0959 8.93271 61.3672 11.4278C62.8125 14.2644 62.8125 17.9776 62.8125 25.4042V41.5958C62.8125 49.0224 62.8125 52.7356 61.3672 55.5722C60.0959 58.0673 58.0673 60.0959 55.5722 61.3672C52.7356 62.8125 49.0224 62.8125 41.5958 62.8125H25.4042C17.9776 62.8125 14.2644 62.8125 11.4278 61.3672C8.93271 60.0959 6.90412 58.0673 5.6328 55.5722C4.1875 52.7356 4.1875 49.0224 4.1875 41.5958V25.4042Z" fill="#470137"/>
<path d="M34.8536 21.427L27.5386 33.8102L35.3648 46.9598C35.5275 47.2579 35.3648 47.3237 35.1289 47.3237H29.5444C29.151 47.3237 28.8757 47.3095 28.7184 47.0404C28.1936 45.9917 27.6693 44.9497 27.1453 43.9144C26.6205 42.8795 26.0634 41.824 25.474 40.748C24.884 39.6728 24.3007 38.5837 23.7239 37.4807C23.1991 38.5566 22.6157 39.6322 22.0524 40.7077C21.4883 41.7835 20.9312 42.8524 20.381 43.9144C19.8304 44.977 19.2668 46.0324 18.69 47.0808C18.5849 47.3228 18.4011 47.3477 18.1393 47.3477H12.7515C12.5398 47.3477 12.5142 47.1886 12.6335 47.0001L20.2237 34.2135L12.8301 21.3867C12.6958 21.2037 12.8114 21.0086 13.0268 21.0236H18.5719C18.812 21.0101 19.0242 21.1007 19.1618 21.306C19.6338 22.3818 20.1581 23.4574 20.7349 24.5329C21.3113 25.6087 21.8947 26.6709 22.485 27.7194C23.0749 28.7682 23.6583 29.8304 24.1565 30.906C24.6806 29.8037 25.2115 28.7281 25.7492 27.6791C26.2863 26.6304 26.8369 25.5749 27.4009 24.5127C27.9645 23.4508 28.5085 22.3953 29.0331 21.3464C29.1027 21.1163 29.2693 20.9997 29.505 21.0236H34.6569C34.8536 21.0236 34.9349 21.2921 34.8536 21.427Z" fill="#FF61F6"/>
<path d="M46.1403 47.8474C42.6719 47.9015 39.039 46.4736 37.2129 43.3096C36.3212 41.7907 35.8755 39.8882 35.8757 37.6021C35.861 35.7508 36.3222 33.9283 37.2129 32.3181C39.5112 28.2098 44.1412 26.6705 48.5392 27.0744V19.1282C48.5392 18.9404 48.6179 18.8459 48.7752 18.8459H53.7304C53.8659 18.826 53.9858 18.9489 53.9665 19.0878V42.9264C53.9665 43.91 54.0639 44.8901 54.1238 45.8709C54.1334 46.0385 54.0365 46.2042 53.8878 46.2743C51.4394 47.3216 48.7903 47.8353 46.1403 47.8474ZM48.5392 42.8458V31.8341C44.9472 30.836 41.4598 33.572 41.4602 37.3601C41.3749 41.2764 44.7509 43.9821 48.5392 42.8458Z" fill="#FF61F6"/>
</svg>
