<svg width="67" height="67" viewBox="0 0 67 67" fill="none" xmlns="http://www.w3.org/2000/svg">
<path d="M4.1875 25.4043C4.1875 17.9778 4.1875 14.2645 5.6328 11.4279C6.90412 8.93283 8.93271 6.90424 11.4278 5.63292C14.2644 4.18762 17.9776 4.18762 25.4042 4.18762H41.5958C49.0224 4.18762 52.7356 4.18762 55.5722 5.63292C58.0673 6.90424 60.0959 8.93283 61.3672 11.4279C62.8125 14.2645 62.8125 17.9778 62.8125 25.4043V41.596C62.8125 49.0225 62.8125 52.7358 61.3672 55.5723C60.0959 58.0674 58.0673 60.096 55.5722 61.3673C52.7356 62.8126 49.0224 62.8126 41.5958 62.8126H25.4042C17.9776 62.8126 14.2644 62.8126 11.4278 61.3673C8.93271 60.096 6.90412 58.0674 5.6328 55.5723C4.1875 52.7358 4.1875 49.0225 4.1875 41.596V25.4043Z" fill="#330000"/>
<path d="M32.5963 41.0297H23.5117L21.6633 46.9188C21.612 47.1375 21.4105 47.2925 21.1913 47.2818H16.59C16.3276 47.2818 16.2359 47.1339 16.3147 46.8381L24.1802 23.6045C24.2589 23.3626 24.3376 23.0869 24.4162 22.7776C24.5191 22.2395 24.5718 21.6925 24.5735 21.1441C24.551 20.9821 24.6934 20.839 24.8488 20.8617H31.1018C31.285 20.8617 31.3899 20.9289 31.4165 21.0634L40.3439 46.8784C40.4225 47.1475 40.3439 47.282 40.1079 47.2818H34.9953C34.8159 47.3021 34.6447 47.1792 34.602 46.9994L32.5963 41.0297ZM24.9274 35.9474H31.1412C30.1203 32.4588 28.9682 29.0161 28.0344 25.5003C27.0269 29.022 25.9277 32.5295 24.9274 35.9474Z" fill="#FF9A00"/>
<path d="M45.6526 25.1372C45.2515 25.1537 44.8515 25.0832 44.4788 24.9303C44.1061 24.7774 43.769 24.5455 43.4896 24.2498C43.211 23.9413 42.9947 23.5793 42.8529 23.1848C42.7112 22.7902 42.6468 22.3708 42.6637 21.9506C42.6494 21.5347 42.7208 21.1203 42.8733 20.7345C43.0257 20.3488 43.2559 20.0003 43.5485 19.712C43.8384 19.4266 44.1806 19.2031 44.5552 19.0542C44.9299 18.9054 45.3296 18.8342 45.7312 18.8448C46.6752 18.8448 47.4158 19.1339 47.9533 19.712C48.2246 20.0124 48.4354 20.3648 48.5738 20.749C48.7121 21.1331 48.7752 21.5415 48.7595 21.9506C48.7759 22.3724 48.7095 22.7933 48.5643 23.1883C48.419 23.5832 48.1979 23.9442 47.9139 24.2498C47.6172 24.5498 47.263 24.7836 46.8739 24.9363C46.4847 25.089 46.0689 25.1574 45.6526 25.1372ZM42.9389 46.8783V27.5976C42.9389 27.3557 43.0434 27.2346 43.2536 27.2346H48.0909C48.3005 27.2346 48.4054 27.3556 48.4056 27.5976V46.8783C48.4056 47.1474 48.3007 47.2818 48.0909 47.2816H43.2929C43.057 47.2816 42.939 47.1472 42.9389 46.8783Z" fill="#FF9A00"/>
</svg>
