<svg width="44" height="44" viewBox="0 0 44 44" fill="none" xmlns="http://www.w3.org/2000/svg">
<g clip-path="url(#clip0_82_3031)">
<path d="M29.3333 7.3335H14.6667C10.6166 7.3335 7.33333 10.6167 7.33333 14.6668V29.3335C7.33333 33.3836 10.6166 36.6668 14.6667 36.6668H29.3333C33.3834 36.6668 36.6667 33.3836 36.6667 29.3335V14.6668C36.6667 10.6167 33.3834 7.3335 29.3333 7.3335Z" stroke="#007AFF" stroke-width="2" stroke-linecap="round" stroke-linejoin="round"/>
<path d="M22 27.5C25.0376 27.5 27.5 25.0376 27.5 22C27.5 18.9624 25.0376 16.5 22 16.5C18.9624 16.5 16.5 18.9624 16.5 22C16.5 25.0376 18.9624 27.5 22 27.5Z" stroke="#007AFF" stroke-width="2" stroke-linecap="round" stroke-linejoin="round"/>
<path d="M30.25 13.75V13.751" stroke="#007AFF" stroke-width="2" stroke-linecap="round" stroke-linejoin="round"/>
</g>
<defs>
<clipPath id="clip0_82_3031">
<rect width="44" height="44" fill="white"/>
</clipPath>
</defs>
</svg>
