<svg width="59" height="59" viewBox="0 0 59 59" fill="none" xmlns="http://www.w3.org/2000/svg">
<path d="M0 21.3524C0 13.8783 0 10.1413 1.45454 7.28663C2.734 4.77556 4.77556 2.734 7.28663 1.45454C10.1413 0 13.8783 0 21.3524 0H37.6476C45.1216 0 48.8587 0 51.7134 1.45454C54.2244 2.734 56.266 4.77556 57.5455 7.28663C59 10.1413 59 13.8783 59 21.3524V37.6476C59 45.1216 59 48.8587 57.5455 51.7134C56.266 54.2244 54.2244 56.266 51.7134 57.5455C48.8587 59 45.1217 59 37.6476 59H21.3524C13.8783 59 10.1413 59 7.28663 57.5455C4.77556 56.266 2.734 54.2244 1.45454 51.7134C0 48.8587 0 45.1217 0 37.6476V21.3524Z" fill="#333333"/>
<path fill-rule="evenodd" clip-rule="evenodd" d="M29.4183 29.3909C29.4183 25.6807 32.4288 22.673 36.1425 22.673C39.8561 22.673 42.8666 25.6807 42.8666 29.3909C42.8666 33.101 39.8561 36.1087 36.1425 36.1087C32.4288 36.1087 29.4183 33.101 29.4183 29.3909Z" fill="#1ABCFE"/>
<path fill-rule="evenodd" clip-rule="evenodd" d="M15.9699 42.8267C15.9699 39.1165 18.9804 36.1088 22.6941 36.1088H29.4183V42.8267C29.4183 46.5368 26.4078 49.5445 22.6941 49.5445C18.9804 49.5445 15.9699 46.5368 15.9699 42.8267Z" fill="#0ACF83"/>
<path fill-rule="evenodd" clip-rule="evenodd" d="M29.4183 9.23718V22.673H36.1425C39.8561 22.673 42.8666 19.6653 42.8666 15.9551C42.8666 12.2449 39.8561 9.23718 36.1425 9.23718H29.4183Z" fill="#FF7262"/>
<path fill-rule="evenodd" clip-rule="evenodd" d="M15.9699 15.9551C15.9699 19.6653 18.9804 22.673 22.6941 22.673H29.4183V9.23718H22.6941C18.9804 9.23718 15.9699 12.2449 15.9699 15.9551Z" fill="#F24E1E"/>
<path fill-rule="evenodd" clip-rule="evenodd" d="M15.9699 29.3909C15.9699 33.101 18.9804 36.1087 22.6941 36.1087H29.4183V22.673H22.6941C18.9804 22.673 15.9699 25.6807 15.9699 29.3909Z" fill="#A259FF"/>
</svg>
