<svg width="66" height="66" viewBox="0 0 66 66" fill="none" xmlns="http://www.w3.org/2000/svg">
<path fill-rule="evenodd" clip-rule="evenodd" d="M32.6757 6.18762C16.9006 6.18762 4.12506 18.9632 4.12506 34.7383C4.12506 47.3746 12.2998 58.0441 23.6481 61.8269C25.0754 62.0763 25.6091 61.2177 25.6091 60.4692C25.6091 59.7904 25.5743 57.5451 25.5743 55.149C18.3975 56.4718 16.5467 53.4027 15.9723 51.7956C15.6532 50.9775 14.2608 48.4421 13.0482 47.7633C12.0503 47.2295 10.6231 45.9067 13.0134 45.8719C15.2645 45.8371 16.8658 47.9432 17.4054 48.796C19.9756 53.1126 24.0774 51.9 25.7194 51.1516C25.9688 49.295 26.7173 48.0476 27.5411 47.334C21.1881 46.6204 14.5509 44.1546 14.5509 33.2356C14.5509 30.1316 15.659 27.5614 17.475 25.5598C17.1907 24.8462 16.1928 21.9221 17.7593 17.9943C17.7593 17.9943 20.1496 17.2458 25.6091 20.9184C27.895 20.2744 30.3202 19.9553 32.7453 19.9553C35.1705 19.9553 37.6014 20.2744 39.8815 20.9184C45.341 17.2052 47.7314 17.9943 47.7314 17.9943C49.3037 21.9221 48.2999 24.8462 48.0157 25.5598C49.8374 27.5556 50.9398 30.091 50.9398 33.2356C50.9398 44.1952 44.2677 46.6204 37.9147 47.334C38.9475 48.2275 39.8409 49.939 39.8409 52.6136C39.8409 56.4312 39.8061 59.5003 39.8061 60.4634C39.8061 61.2119 40.3399 62.1054 41.7671 61.8211C53.0458 58.0383 61.2206 47.3282 61.2206 34.7325C61.2322 18.9632 48.4508 6.18762 32.6757 6.18762Z" fill="black"/>
</svg>
