<svg width="67" height="67" viewBox="0 0 67 67" fill="none" xmlns="http://www.w3.org/2000/svg">
<rect x="4.18747" y="4.18762" width="58.625" height="58.625" fill="#FFCA28"/>
<path d="M39.7812 52.9461L44.0976 50.09C44.4358 51.1527 46.5779 53.6767 49.2837 53.6767C51.9894 53.6767 53.2457 52.1989 53.2457 51.2192C53.2457 48.5492 50.4828 47.6079 49.1557 47.1557C48.9394 47.082 48.7612 47.0213 48.6394 46.9682C48.577 46.941 48.4825 46.9049 48.3612 46.8586C46.8853 46.2947 41.4401 44.2144 41.4401 38.1841C41.4401 31.542 47.8502 30.7782 49.2998 30.7782C50.2481 30.7782 54.8079 30.8944 57.0788 35.162L52.8913 38.0845C51.9733 36.2247 50.448 35.6103 49.5091 35.6103C47.1899 35.6103 46.7067 37.3106 46.7067 38.0845C46.7067 40.2561 49.2265 41.2295 51.3541 42.0514C51.9107 42.2664 52.4405 42.4711 52.8913 42.6841C55.2106 43.7801 58.625 45.5734 58.625 51.2192C58.625 54.047 56.2532 58.6251 50.2822 58.6251C42.2615 58.6251 40.1356 53.8096 39.7812 52.9461Z" fill="#3E3E3E"/>
<path d="M18.8438 53.5133L23.3425 50.6586C23.6951 51.7208 25.0648 53.6792 27.0524 53.6792C29.0399 53.6792 30.0571 51.6378 30.0571 50.6586V31.4063H35.59V50.6586C35.6795 53.3141 34.2068 58.6251 27.707 58.6251C21.731 58.6251 19.2466 55.0734 18.8438 53.5133Z" fill="#3E3E3E"/>
</svg>
