<svg width="105" height="105" viewBox="0 0 105 105" fill="none" xmlns="http://www.w3.org/2000/svg">
<path d="M97.5 56.8301C100.833 54.9056 100.833 50.0944 97.5 48.1699L33.75 11.3638C30.4167 9.43929 26.25 11.8449 26.25 15.6939L26.25 89.3061C26.25 93.1551 30.4167 95.5607 33.75 93.6362L97.5 56.8301Z" fill="url(#paint0_linear_153_164)"/>
<path d="M36.92 59V44.28H39.3L44.2 52.94L45.74 56.04H45.84C45.7 54.54 45.52 52.74 45.52 51.16V44.28H47.74V59H45.34L40.48 50.34L38.94 47.24H38.84C38.94 48.78 39.14 50.46 39.14 52.08V59H36.92ZM56.0075 59.28C53.0075 59.28 50.6475 57.14 50.6475 53.52C50.6475 49.94 53.1075 47.72 55.6675 47.72C58.5675 47.72 60.1475 49.82 60.1475 52.94C60.1475 53.4 60.1075 53.84 60.0475 54.12H52.9075C53.0875 56.22 54.4075 57.46 56.3075 57.46C57.2875 57.46 58.1075 57.16 58.9275 56.64L59.7275 58.12C58.7075 58.8 57.4475 59.28 56.0075 59.28ZM52.8675 52.52H58.1475C58.1475 50.62 57.3075 49.54 55.7075 49.54C54.3275 49.54 53.1075 50.6 52.8675 52.52ZM61.0227 59L64.5627 53.28L61.2827 48H63.7627L65.0827 50.2C65.4027 50.84 65.7627 51.44 66.1227 52.06H66.2027C66.5027 51.44 66.8027 50.84 67.1227 50.2L68.2627 48H70.6627L67.3827 53.52L70.9227 59H68.4227L66.9827 56.68C66.6227 56.02 66.2227 55.36 65.8427 54.74H65.7427C65.3827 55.36 65.0627 56.02 64.7027 56.68L63.4427 59H61.0227ZM76.0255 59.28C73.5655 59.28 72.6855 57.72 72.6855 55.42V49.84H71.0855V48.12L72.8055 48L73.0655 44.96H74.9855V48H77.8655V49.84H74.9855V55.44C74.9855 56.74 75.4655 57.44 76.6055 57.44C76.9855 57.44 77.4455 57.3 77.7855 57.16L78.2055 58.86C77.5855 59.06 76.8455 59.28 76.0255 59.28Z" fill="white"/>
<defs>
<linearGradient id="paint0_linear_153_164" x1="105" y1="52.5" x2="-6.26056e-07" y2="52.5" gradientUnits="userSpaceOnUse">
<stop stop-color="#98E0F1"/>
<stop offset="1" stop-color="#F4CDFF"/>
</linearGradient>
</defs>
</svg>
