<svg width="105" height="105" viewBox="0 0 105 105" fill="none" xmlns="http://www.w3.org/2000/svg">
<path d="M7.5 56.8301C4.16667 54.9056 4.16667 50.0944 7.5 48.1699L71.25 11.3638C74.5833 9.43929 78.75 11.8449 78.75 15.6939L78.75 89.3061C78.75 93.1551 74.5833 95.5607 71.25 93.6362L7.5 56.8301Z" fill="url(#paint0_linear_153_165)"/>
<path d="M28.92 59V44.28H33.4C36.68 44.28 39.02 45.4 39.02 48.74C39.02 51.96 36.68 53.42 33.48 53.42H31.26V59H28.92ZM31.26 51.56H33.26C35.6 51.56 36.72 50.66 36.72 48.74C36.72 46.78 35.52 46.16 33.16 46.16H31.26V51.56ZM41.6888 59V48H43.5688L43.7688 49.98H43.8288C44.6088 48.56 45.7688 47.72 46.9488 47.72C47.4888 47.72 47.8288 47.8 48.1688 47.96L47.7688 49.96C47.3888 49.84 47.1088 49.78 46.6488 49.78C45.7688 49.78 44.6888 50.42 44.0088 52.16V59H41.6888ZM54.1598 59.28C51.1598 59.28 48.7998 57.14 48.7998 53.52C48.7998 49.94 51.2598 47.72 53.8198 47.72C56.7198 47.72 58.2998 49.82 58.2998 52.94C58.2998 53.4 58.2598 53.84 58.1998 54.12H51.0598C51.2398 56.22 52.5598 57.46 54.4598 57.46C55.4398 57.46 56.2598 57.16 57.0798 56.64L57.8798 58.12C56.8598 58.8 55.5998 59.28 54.1598 59.28ZM51.0198 52.52H56.2998C56.2998 50.62 55.4598 49.54 53.8598 49.54C52.4798 49.54 51.2598 50.6 51.0198 52.52ZM63.2494 59L59.3694 48H61.7294L63.5894 53.92C63.9094 55 64.2294 56.12 64.5494 57.2H64.6494C64.9694 56.12 65.2894 55 65.6094 53.92L67.4894 48H69.7294L65.9294 59H63.2494Z" fill="white"/>
<defs>
<linearGradient id="paint0_linear_153_165" x1="6.26056e-07" y1="52.5" x2="105" y2="52.5" gradientUnits="userSpaceOnUse">
<stop stop-color="#98E0F1"/>
<stop offset="1" stop-color="#F4CDFF"/>
</linearGradient>
</defs>
</svg>
