<svg width="72" height="72" viewBox="0 0 72 72" fill="none" xmlns="http://www.w3.org/2000/svg">
<g clip-path="url(#clip0_77_138)">
<circle cx="37.1738" cy="35.1196" r="28.7609" fill="url(#paint0_linear_77_138)"/>
<mask id="mask0_77_138" style="mask-type:alpha" maskUnits="userSpaceOnUse" x="8" y="6" width="58" height="58">
<circle cx="37.1738" cy="35.1196" r="28.7609" fill="#C4C4C4"/>
</mask>
<g mask="url(#mask0_77_138)">
<rect x="39.2282" y="2.25006" width="34.9239" height="34.9239" fill="url(#paint1_linear_77_138)"/>
<path d="M14.576 26.9022C14.576 23.4984 17.3353 20.7391 20.7391 20.7391H37.1739C40.5776 20.7391 43.3369 23.4984 43.3369 26.9022V51.5544C43.3369 54.9581 40.5776 57.7174 37.1739 57.7174H14.576V26.9022Z" fill="black" fill-opacity="0.3"/>
<rect x="4.30426" y="2.25006" width="34.9239" height="34.9239" fill="#EB6C4D"/>
</g>
<rect x="2.24994" y="16.6305" width="36.9783" height="36.9783" rx="4.1087" fill="url(#paint2_linear_77_138)"/>
<path d="M28.9565 31.9501C28.9565 27.5186 26.0391 24.8479 21.4126 24.8479H14.576V45.3914H18.8195V39.1403H21.2358C25.5677 39.1403 28.9565 36.6751 28.9565 31.9501ZM24.6541 32.0381C24.6541 34.0338 23.387 35.3251 21.3242 35.3251H18.8195V28.6925H21.2948C23.3575 28.6925 24.6541 29.7783 24.6541 32.0381Z" fill="white"/>
</g>
<defs>
<linearGradient id="paint0_linear_77_138" x1="8.41296" y1="39.0866" x2="65.9347" y2="39.0866" gradientUnits="userSpaceOnUse">
<stop stop-color="#A73A24"/>
<stop offset="1" stop-color="#F75936"/>
</linearGradient>
<linearGradient id="paint1_linear_77_138" x1="66.9619" y1="22.7935" x2="39.2282" y2="22.7935" gradientUnits="userSpaceOnUse">
<stop stop-color="#FDB8A3"/>
<stop offset="1" stop-color="#F1876D"/>
</linearGradient>
<linearGradient id="paint2_linear_77_138" x1="2.24994" y1="37.6698" x2="39.2282" y2="37.6698" gradientUnits="userSpaceOnUse">
<stop stop-color="#A73A24"/>
<stop offset="1" stop-color="#F75936"/>
</linearGradient>
<clipPath id="clip0_77_138">
<rect width="65.7391" height="65.7391" fill="white" transform="translate(2.24994 2.24994)"/>
</clipPath>
</defs>
</svg>
