<svg width="67" height="67" viewBox="0 0 67 67" fill="none" xmlns="http://www.w3.org/2000/svg">
<g clip-path="url(#clip0_77_135)">
<rect x="17.3873" y="8.01086" width="45.8804" height="53.5272" rx="3.82337" fill="url(#paint0_linear_77_135)"/>
<path d="M17.3873 48.1562H63.2678V57.7147C63.2678 59.8263 61.556 61.538 59.4444 61.538H21.2107C19.0991 61.538 17.3873 59.8263 17.3873 57.7147V48.1562Z" fill="url(#paint1_linear_77_135)"/>
<rect x="17.3873" y="34.7744" width="45.8804" height="13.3818" fill="url(#paint2_linear_77_135)"/>
<rect x="17.3873" y="21.3927" width="45.8804" height="13.3818" fill="url(#paint3_linear_77_135)"/>
<path d="M17.3873 27.1278C17.3873 23.9604 19.955 21.3927 23.1224 21.3927H34.5925C37.7599 21.3927 40.3275 23.9604 40.3275 27.1278V50.068C40.3275 53.2353 37.7599 55.803 34.5925 55.803H17.3873V27.1278Z" fill="black" fill-opacity="0.3"/>
<rect x="2.09381" y="17.5693" width="34.4103" height="34.4103" rx="3.82337" fill="url(#paint4_linear_77_135)"/>
<path d="M30.7691 25.2432H27.0457L24.1219 37.7166L20.9233 25.2161H17.7746L14.551 37.7166L11.6522 25.2432H7.82886L12.8017 44.3329H16.1003L19.299 32.2662L22.4976 44.3329H25.7962L30.7691 25.2432Z" fill="white"/>
</g>
<defs>
<linearGradient id="paint0_linear_77_135" x1="17.3873" y1="16.9321" x2="63.2678" y2="16.9321" gradientUnits="userSpaceOnUse">
<stop stop-color="#2B78B1"/>
<stop offset="1" stop-color="#338ACD"/>
</linearGradient>
<linearGradient id="paint1_linear_77_135" x1="17.3873" y1="56.5199" x2="63.2678" y2="56.5199" gradientUnits="userSpaceOnUse">
<stop stop-color="#1B366F"/>
<stop offset="1" stop-color="#2657B0"/>
</linearGradient>
<linearGradient id="paint2_linear_77_135" x1="37.46" y1="42.4212" x2="63.2678" y2="42.4212" gradientUnits="userSpaceOnUse">
<stop stop-color="#20478B"/>
<stop offset="1" stop-color="#2D6FD1"/>
</linearGradient>
<linearGradient id="paint3_linear_77_135" x1="37.46" y1="29.0394" x2="63.2678" y2="29.0394" gradientUnits="userSpaceOnUse">
<stop stop-color="#215295"/>
<stop offset="1" stop-color="#2E84D3"/>
</linearGradient>
<linearGradient id="paint4_linear_77_135" x1="2.09381" y1="36.6862" x2="38.4158" y2="36.6862" gradientUnits="userSpaceOnUse">
<stop stop-color="#223E74"/>
<stop offset="1" stop-color="#215091"/>
</linearGradient>
<clipPath id="clip0_77_135">
<rect width="61.1739" height="61.1739" fill="white" transform="translate(2.09381 4.1875)"/>
</clipPath>
</defs>
</svg>
