<svg width="80" height="80" viewBox="0 0 80 80" fill="none" xmlns="http://www.w3.org/2000/svg">
<path fill-rule="evenodd" clip-rule="evenodd" d="M15.7893 50.4208L12.1274 51.7357L11.9308 62.444L24.6072 57.8921C20.2593 56.4565 17.0842 53.9307 15.7893 50.4208" fill="#FDBD39"/>
<path fill-rule="evenodd" clip-rule="evenodd" d="M17.7057 39.095L5 43.6574L12.1274 51.7357L15.7893 50.4208C14.4982 46.9211 15.2944 42.965 17.7057 39.095" fill="#F69833"/>
<path fill-rule="evenodd" clip-rule="evenodd" d="M39.0873 23.6436C22.9077 29.4534 12.4768 41.4419 15.7894 50.4208L74.3808 29.3816C71.0683 20.4027 55.2669 17.8337 39.0873 23.6436Z" fill="#FECF33"/>
<path fill-rule="evenodd" clip-rule="evenodd" d="M51.0829 56.1588C67.2625 50.349 77.7129 38.4136 74.3808 29.3816L15.7894 50.4208C19.1214 59.4528 34.9033 61.9686 51.0829 56.1588Z" fill="#EE6723"/>
<path fill-rule="evenodd" clip-rule="evenodd" d="M74.3808 29.3816L15.7894 50.4208C16.9367 53.5307 21.3118 55.0628 27.4506 55.0628C33.4354 55.0628 41.0966 53.6076 49.0836 50.7396C65.2632 44.9298 76.6466 35.5233 74.3808 29.3816" fill="#F69833"/>
<path fill-rule="evenodd" clip-rule="evenodd" d="M62.7196 24.7395C56.7347 24.7395 49.0736 26.1947 41.0865 29.0627C24.9069 34.8725 13.5235 44.279 15.7893 50.4207L74.3808 29.3815C73.2335 26.2716 68.8584 24.7395 62.7196 24.7395" fill="#FDBD39"/>
<path fill-rule="evenodd" clip-rule="evenodd" d="M59.4837 63.011H59.4833C57.7595 63.011 55.2163 61.4804 51.9242 58.4618C48.0296 54.8906 43.5683 49.6598 39.362 43.7332C35.1558 37.8069 31.6995 31.8819 29.6299 27.0497C27.3749 21.7838 27.0534 18.5459 28.6742 17.4261C29.0296 17.1808 29.458 17.0565 29.9475 17.0565C31.2659 17.0565 33.8348 18.0214 38.5852 22.6182L38.6891 22.7186L38.675 22.8615C38.6425 23.1917 38.6126 23.5249 38.5859 23.852L38.533 24.5013L38.0669 24.0398C32.9486 18.9712 30.6955 18.424 29.9642 18.424C29.7557 18.424 29.5897 18.4657 29.4706 18.548C28.7676 19.0335 28.7223 21.4118 30.9085 26.5166C32.9412 31.2627 36.3472 37.098 40.4991 42.9476C44.6511 48.7978 49.0442 53.9512 52.8692 57.4586C56.9938 61.2407 58.8526 61.6491 59.4603 61.6491C59.6701 61.6491 59.8406 61.6047 59.9671 61.5173C60.7087 61.0051 60.7096 58.4573 58.2716 52.963L58.1597 52.7107L58.4047 52.5789C58.6498 52.447 58.8867 52.3172 59.109 52.193L59.4025 52.0291L59.5378 52.3338C61.2664 56.227 62.8823 61.1752 60.7635 62.6392C60.4062 62.8859 59.9757 63.011 59.4837 63.011V63.011ZM59.4833 62.4104H59.4838L59.4835 62.7107L59.4833 62.4104Z" fill="#EE6723"/>
<path fill-rule="evenodd" clip-rule="evenodd" d="M51.4757 55.9949L51.451 56.2942C51.042 61.2692 49.965 67.2504 47.1568 67.4925C47.1003 67.4974 47.0417 67.5 46.9831 67.5C45.0755 67.5 43.2707 64.8134 41.619 59.5146C40.0562 54.5016 38.8435 47.7709 38.2043 40.5624C37.565 33.3554 37.5746 26.5193 38.2312 21.3134C38.947 15.6406 40.3096 12.6781 42.281 12.508C42.3392 12.5027 42.3997 12.5 42.4593 12.5C43.8432 12.5 45.9289 14.0403 48.0641 21.2147L46.6699 21.4792C45.957 19.0817 45.1801 17.1317 44.4088 15.7919C43.6954 14.5525 43.0017 13.87 42.4554 13.87C42.4374 13.87 42.4193 13.8707 42.4015 13.8722C41.547 13.946 40.3026 15.9834 39.6088 21.4825C38.9638 26.595 38.9561 33.3287 39.5869 40.4432C40.2181 47.5588 41.411 54.1889 42.9457 59.112C43.633 61.317 44.3869 63.1341 45.1259 64.3672C45.8073 65.5043 46.4667 66.1306 46.9827 66.1306C47.0005 66.1306 47.0181 66.1298 47.0358 66.1283C47.8534 66.0579 49.3941 63.9377 50.0426 56.4783L51.4757 55.9949" fill="#EE6723"/>
</svg>
